<?xml version="1.0" encoding="UTF-8"?>
<svg xmlns="http://www.w3.org/2000/svg" viewBox="0 0 1024 624" role="img" aria-label="A captured screenshot of the LifeGuard operator console — three-column dark UI with live alert queue.">
  <defs>
    <linearGradient id="frameB" x1="0%" y1="0%" x2="0%" y2="100%">
      <stop offset="0%" stop-color="#191c20"/>
      <stop offset="100%" stop-color="#0a0b0d"/>
    </linearGradient>
    <linearGradient id="sidePanel" x1="0%" y1="0%" x2="0%" y2="100%">
      <stop offset="0%" stop-color="#0f1114"/>
      <stop offset="100%" stop-color="#191c20"/>
    </linearGradient>
    <linearGradient id="centerPanel" x1="0%" y1="0%" x2="0%" y2="100%">
      <stop offset="0%" stop-color="#0a0c10"/>
      <stop offset="100%" stop-color="#0f1114"/>
    </linearGradient>
  </defs>

  <rect width="1024" height="624" rx="8" fill="url(#frameB)"/>
  <!-- top bar -->
  <rect x="0" y="0" width="1024" height="48" rx="0" fill="#0d0f12"/>
  <!-- logo -->
  <g transform="translate(20,16)">
    <circle cx="0" cy="0" r="9" fill="#06b6a4"/>
    <circle cx="0" cy="0" r="3" fill="#0a0b0d"/>
  </g>
  <text x="40" y="20" font-family="Inter, sans-serif" font-size="13" font-weight="600" fill="#f7f8f8">LifeGuard Operator</text>
  <text x="180" y="20" font-family="Inter, sans-serif" font-size="11" font-weight="510" fill="#8a8f98">· Crescent Armed Response</text>

  <!-- status badge -->
  <g transform="translate(820,16)">
    <circle cx="0" cy="0" r="4" fill="#10b981"/>
    <text x="14" y="4" font-family="Inter, sans-serif" font-size="11" font-weight="510" fill="#d0d6e0">All systems</text>
  </g>
  <text x="930" y="20" font-family="JetBrains Mono, monospace" font-size="10" fill="#8a8f98">04:12 UTC</text>

  <!-- left rail -->
  <rect x="0" y="48" width="240" height="576" fill="url(#sidePanel)"/>
  <line x1="240" y1="48" x2="240" y2="624" stroke="rgba(255,255,255,0.06)"/>

  <text x="20" y="76" font-family="Inter, sans-serif" font-size="9" font-weight="600" letter-spacing="2.4" fill="#8a8f98">FILTERS</text>
  <!-- filter chips -->
  <g transform="translate(20,96)">
    <rect x="0" y="0" width="200" height="32" rx="6" fill="rgba(6,182,164,0.10)" stroke="rgba(6,182,164,0.4)"/>
    <circle cx="14" cy="16" r="3" fill="#06b6a4"/>
    <text x="26" y="20" font-family="Inter, sans-serif" font-size="11" font-weight="510" fill="#06b6a4">Active · 4 alerts</text>
    <text x="186" y="20" text-anchor="end" font-family="Inter, sans-serif" font-size="9" fill="#6b7280">⌘ K</text>
  </g>

  <text x="20" y="158" font-family="Inter, sans-serif" font-size="9" font-weight="600" letter-spacing="2.4" fill="#8a8f98">SUBSCRIBERS</text>

  <g font-family="Inter, sans-serif" font-size="11" fill="#d0d6e0" font-weight="510">
    <g transform="translate(20,170)">
      <circle cx="10" cy="14" r="12" fill="#06b6a4"/>
      <text x="10" y="18" text-anchor="middle" fill="#0a0b0d" font-size="11" font-weight="700">LD</text>
      <text x="32" y="14">Lerato Dlamini</text>
      <text x="32" y="26" font-size="9" font-weight="400" fill="#8a8f98">Cape Town · HR 64</text>
      <circle cx="195" cy="14" r="3" fill="#dc2626"/>
    </g>
    <g transform="translate(20,210)">
      <circle cx="10" cy="14" r="12" fill="#1d4ed8"/>
      <text x="10" y="18" text-anchor="middle" fill="#fff" font-size="11" font-weight="700">PD</text>
      <text x="32" y="14">Patricia Botha</text>
      <text x="32" y="26" font-size="9" font-weight="400" fill="#8a8f98">Stellenbosch · 71F</text>
      <circle cx="195" cy="14" r="3" fill="#10b981"/>
    </g>
    <g transform="translate(20,250)">
      <circle cx="10" cy="14" r="12" fill="#7c3aed"/>
      <text x="10" y="18" text-anchor="middle" fill="#fff" font-size="11" font-weight="700">JS</text>
      <text x="32" y="14">Joyce Adams</text>
      <text x="32" y="26" font-size="9" font-weight="400" fill="#8a8f98">Hermanus · HR 71</text>
      <circle cx="195" cy="14" r="3" fill="#f59e0b"/>
    </g>
    <g transform="translate(20,290)">
      <circle cx="10" cy="14" r="12" fill="#0d9488"/>
      <text x="10" y="18" text-anchor="middle" fill="#fff" font-size="11" font-weight="700">SM</text>
      <text x="32" y="14">Susan O'Connor</text>
      <text x="32" y="26" font-size="9" font-weight="400" fill="#8a8f98">Knysna · low batt</text>
      <circle cx="195" cy="14" r="3" fill="#f59e0b"/>
    </g>
    <g transform="translate(20,330)">
      <circle cx="10" cy="14" r="12" fill="#f97316"/>
      <text x="10" y="18" text-anchor="middle" fill="#fff" font-size="11" font-weight="700">EM</text>
      <text x="32" y="14">Ebrahim Sallie</text>
      <text x="32" y="26" font-size="9" font-weight="400" fill="#8a8f98">Camps Bay · HR 78</text>
      <circle cx="195" cy="14" r="3" fill="#10b981"/>
    </g>
    <g transform="translate(20,370)">
      <circle cx="10" cy="14" r="12" fill="#0ea5e9"/>
      <text x="10" y="18" text-anchor="middle" fill="#fff" font-size="11" font-weight="700">HM</text>
      <text x="32" y="14">Hendrik van der Merwe</text>
      <text x="32" y="26" font-size="9" font-weight="400" fill="#8a8f98">Durbanville · HR 66</text>
      <circle cx="195" cy="14" r="3" fill="#10b981"/>
    </g>
  </g>

  <!-- center area: the live map -->
  <rect x="240" y="48" width="544" height="576" fill="url(#centerPanel)"/>

  <!-- map header -->
  <text x="264" y="76" font-family="Inter, sans-serif" font-size="9" font-weight="600" letter-spacing="2.4" fill="#8a8f98">MAP · WESTERN CAPE</text>
  <text x="760" y="76" text-anchor="end" font-family="JetBrains Mono, monospace" font-size="9" fill="#6b7280">8 responders · 80 subs online</text>

  <!-- land (irregular blob representing cape peninsula) -->
  <path d="M 280 110 Q 320 130 360 110 Q 400 130 440 110 Q 480 130 520 110 L 540 180 Q 530 230 500 250 Q 460 280 420 260 Q 380 280 340 270 Q 300 290 280 280 Q 270 220 280 110 Z" fill="rgba(82,148,255,0.10)" stroke="rgba(82,148,255,0.4)" stroke-width="1"/>
  <text x="400" y="220" font-family="Inter, sans-serif" font-size="9" fill="rgba(82,148,255,0.7)" text-anchor="middle">Cape Peninsula</text>

  <!-- grid -->
  <g stroke="rgba(255,255,255,0.04)" stroke-width="0.4">
    <line x1="280" y1="200" x2="760" y2="200"/>
    <line x1="280" y1="300" x2="760" y2="300"/>
    <line x1="280" y1="400" x2="760" y2="400"/>
    <line x1="280" y1="500" x2="760" y2="500"/>
    <line x1="380" y1="110" x2="380" y2="600"/>
    <line x1="480" y1="110" x2="480" y2="600"/>
    <line x1="580" y1="110" x2="580" y2="600"/>
    <line x1="680" y1="110" x2="680" y2="600"/>
  </g>

  <!-- pins: subscribers (green) -->
  <g fill="#06b6a4">
    <circle cx="320" cy="150" r="3"/>
    <circle cx="370" cy="180" r="3"/>
    <circle cx="410" cy="160" r="3"/>
    <circle cx="350" cy="220" r="3"/>
    <circle cx="430" cy="200" r="3"/>
    <circle cx="500" cy="170" r="3"/>
    <circle cx="540" cy="190" r="3"/>
    <circle cx="380" cy="280" r="3"/>
    <circle cx="460" cy="320" r="3"/>
    <circle cx="520" cy="290" r="3"/>
    <circle cx="600" cy="220" r="3"/>
    <circle cx="640" cy="260" r="3"/>
    <circle cx="580" cy="320" r="3"/>
    <circle cx="540" cy="400" r="3"/>
  </g>

  <!-- pins: responders (blue) -->
  <g fill="#1d4ed8">
    <circle cx="360" cy="170" r="4"/>
    <text x="360" y="155" font-family="JetBrains Mono, monospace" font-size="8" fill="#60a5fa" text-anchor="middle">α-1</text>
    <circle cx="420" cy="220" r="4"/>
    <text x="420" y="245" font-family="JetBrains Mono, monospace" font-size="8" fill="#60a5fa" text-anchor="middle">α-2</text>
    <circle cx="510" cy="270" r="4"/>
    <text x="510" y="295" font-family="JetBrains Mono, monospace" font-size="8" fill="#60a5fa" text-anchor="middle">β-1</text>
    <circle cx="600" cy="190" r="4"/>
    <text x="600" y="215" font-family="JetBrains Mono, monospace" font-size="8" fill="#60a5fa" text-anchor="middle">β-2</text>
  </g>

  <!-- the active SOS alert pin + pulsing ring -->
  <circle cx="430" cy="240" r="8" fill="#dc2626"/>
  <circle cx="430" cy="240" r="14" fill="none" stroke="#dc2626" stroke-opacity="0.6" stroke-width="2"/>
  <circle cx="430" cy="240" r="22" fill="none" stroke="#dc2626" stroke-opacity="0.3" stroke-width="1.4"/>
  <text x="430" y="244" text-anchor="middle" font-family="Inter, sans-serif" font-size="9" font-weight="700" fill="#fff">!</text>

  <!-- responder route to incident (dashed) -->
  <line x1="420" y1="220" x2="430" y2="240" stroke="#34d399" stroke-width="1.4" stroke-opacity="0.8" stroke-dasharray="4 4"/>

  <!-- map footer info chip -->
  <g transform="translate(280,560)">
    <rect x="0" y="0" width="180" height="44" rx="6" fill="rgba(0,0,0,0.4)" stroke="rgba(255,255,255,0.08)"/>
    <circle cx="14" cy="14" r="4" fill="#06b6a4"/>
    <text x="14" y="18" text-anchor="middle" font-family="Inter, sans-serif" font-size="7" font-weight="700" fill="#0a0b0d">●</text>
    <text x="28" y="14" font-family="Inter, sans-serif" font-size="9" font-weight="600" fill="#d0d6e0">α-2 ETA 4m12s</text>
    <text x="28" y="26" font-family="JetBrains Mono, monospace" font-size="8" fill="#8a8f98">→ Mapleton 31B</text>
    <text x="28" y="38" font-family="JetBrains Mono, monospace" font-size="8" fill="#34d399">VOICE · OPEN</text>
  </g>

  <!-- right column: alert queue -->
  <rect x="784" y="48" width="240" height="576" fill="url(#sidePanel)"/>
  <line x1="784" y1="48" x2="784" y2="624" stroke="rgba(255,255,255,0.06)"/>

  <text x="804" y="76" font-family="Inter, sans-serif" font-size="9" font-weight="600" letter-spacing="2.4" fill="#8a8f98">ALERTS · AI SCORED</text>

  <!-- alert cards -->
  <g transform="translate(804,90)">
    <rect x="0" y="0" width="200" height="78" rx="6" fill="rgba(220,38,38,0.10)" stroke="rgba(220,38,38,0.45)" stroke-width="1"/>
    <rect x="0" y="0" width="3" height="78" rx="3" fill="#dc2626"/>
    <text x="14" y="22" font-family="Inter, sans-serif" font-size="11" font-weight="700" fill="#fff">HIGH · 0.91</text>
    <text x="186" y="22" text-anchor="end" font-family="JetBrains Mono, monospace" font-size="9" fill="#94a3b8">00:42</text>
    <text x="14" y="40" font-family="Inter, sans-serif" font-size="10" font-weight="510" fill="#d0d6e0">Lerato Dlamini · 71F</text>
    <text x="14" y="54" font-family="Inter, sans-serif" font-size="9" fill="#8a8f98">Mapleton · panic press</text>
    <rect x="14" y="62" width="64" height="12" rx="2" fill="rgba(220,38,38,0.30)"/>
    <text x="46" y="71" text-anchor="middle" font-family="Inter, sans-serif" font-size="8" font-weight="600" fill="#fff">VOICE</text>
    <rect x="84" y="62" width="78" height="12" rx="2" fill="rgba(6,182,164,0.30)"/>
    <text x="123" y="71" text-anchor="middle" font-family="Inter, sans-serif" font-size="8" font-weight="600" fill="#06b6a4">DISPATCH</text>
  </g>

  <g transform="translate(804,180)">
    <rect x="0" y="0" width="200" height="64" rx="6" fill="rgba(245,158,11,0.10)" stroke="rgba(245,158,11,0.4)" stroke-width="1"/>
    <rect x="0" y="0" width="3" height="64" rx="3" fill="#f59e0b"/>
    <text x="14" y="22" font-family="Inter, sans-serif" font-size="11" font-weight="700" fill="#fff">MED · 0.62</text>
    <text x="186" y="22" text-anchor="end" font-family="JetBrains Mono, monospace" font-size="9" fill="#94a3b8">02:18</text>
    <text x="14" y="40" font-family="Inter, sans-serif" font-size="10" font-weight="510" fill="#d0d6e0">Ebrahim Sallie</text>
    <text x="14" y="54" font-family="Inter, sans-serif" font-size="9" fill="#8a8f98">Camps Bay · geofence</text>
  </g>

  <g transform="translate(804,256)">
    <rect x="0" y="0" width="200" height="64" rx="6" fill="rgba(96,165,250,0.10)" stroke="rgba(96,165,250,0.4)" stroke-width="1"/>
    <rect x="0" y="0" width="3" height="64" rx="3" fill="#60a5fa"/>
    <text x="14" y="22" font-family="Inter, sans-serif" font-size="11" font-weight="700" fill="#fff">LOW · 0.34</text>
    <text x="186" y="22" text-anchor="end" font-family="JetBrains Mono, monospace" font-size="9" fill="#94a3b8">04:02</text>
    <text x="14" y="40" font-family="Inter, sans-serif" font-size="10" font-weight="510" fill="#d0d6e0">Susan O'Connor</text>
    <text x="14" y="54" font-family="Inter, sans-serif" font-size="9" fill="#8a8f98">Knysna · low batt</text>
  </g>

  <!-- footer summary chip -->
  <g transform="translate(804,340)">
    <rect x="0" y="0" width="200" height="200" rx="6" fill="rgba(255,255,255,0.04)" stroke="rgba(255,255,255,0.06)"/>
    <text x="14" y="22" font-family="Inter, sans-serif" font-size="9" font-weight="600" letter-spacing="2.4" fill="#8a8f98">SHIFT SUMMARY</text>
    <g font-family="Inter, sans-serif">
      <text x="14" y="48" font-size="10" fill="#8a8f98">Alerts today</text>
      <text x="186" y="48" text-anchor="end" font-family="JetBrains Mono, monospace" font-size="13" font-weight="600" fill="#f7f8f8">142</text>
      <text x="14" y="68" font-size="10" fill="#8a8f98">Dispatched</text>
      <text x="186" y="68" text-anchor="end" font-family="JetBrains Mono, monospace" font-size="13" font-weight="600" fill="#06b6a4">38</text>
      <text x="14" y="88" font-size="10" fill="#8a8f98">False alarms</text>
      <text x="186" y="88" text-anchor="end" font-family="JetBrains Mono, monospace" font-size="13" font-weight="600" fill="#f7f8f8">42</text>
      <text x="14" y="108" font-size="10" fill="#8a8f98">Avg ack time</text>
      <text x="186" y="108" text-anchor="end" font-family="JetBrains Mono, monospace" font-size="13" font-weight="600" fill="#f7f8f8">53s</text>
      <text x="14" y="128" font-size="10" fill="#8a8f98">Avg responder ETA</text>
      <text x="186" y="128" text-anchor="end" font-family="JetBrains Mono, monospace" font-size="13" font-weight="600" fill="#06b6a4">7m12s</text>
      <line x1="14" y1="142" x2="186" y2="142" stroke="rgba(255,255,255,0.06)"/>
      <text x="14" y="160" font-size="9" fill="#62666d">AI triage accuracy</text>
      <text x="186" y="160" text-anchor="end" font-family="JetBrains Mono, monospace" font-size="9" fill="#06b6a4">97.4%</text>
      <text x="14" y="174" font-size="9" fill="#62666d">Operator SLA</text>
      <text x="186" y="174" text-anchor="end" font-family="JetBrains Mono, monospace" font-size="9" fill="#06b6a4">99.95%</text>
    </g>
  </g>

  <!-- footer -->
  <line x1="0" y1="600" x2="1024" y2="600" stroke="rgba(255,255,255,0.06)"/>
  <text x="20" y="616" font-family="Inter, sans-serif" font-size="9" fill="#62666d">LifeGuard Operator · linear-class dark · ⌘K · ⌘A · ⌘V</text>
  <text x="1004" y="616" text-anchor="end" font-family="JetBrains Mono, monospace" font-size="9" fill="#62666d">v2.4.3 · build 2026.07.17</text>
</svg>
